<?xml version="1.0" encoding="UTF-8" standalone="no"?>
<!DOCTYPE svg PUBLIC "-//W3C//DTD SVG 1.1//EN" "http://www.w3.org/Graphics/SVG/1.1/DTD/svg11.dtd">
<svg width="100%" height="100%" viewBox="0 0 3508 2481" version="1.1" xmlns="http://www.w3.org/2000/svg" xmlns:xlink="http://www.w3.org/1999/xlink" xml:space="preserve" xmlns:serif="http://www.serif.com/" style="fill-rule:evenodd;clip-rule:evenodd;stroke-linejoin:round;stroke-miterlimit:2;">
    <g transform="matrix(9.61456,0,0,9.61456,-6230.55,-22441.3)">
        <g transform="matrix(2.8552,0,0,1,-1384.72,0)">
            <path d="M720.048,2483.46C720.048,2483.76 719.978,2484.66 720.643,2484.61L723.515,2484.61C723.428,2484.01 723.253,2478.61 723.165,2472.11L727.683,2472.11C727.771,2477.06 727.911,2481.56 727.963,2483.46C727.963,2483.76 727.928,2484.66 728.576,2484.61L731.448,2484.61C731.255,2483.46 730.73,2463.86 731.378,2449.91C731.483,2447.61 731.203,2447.36 730.572,2447.36L728.051,2447.26C727.771,2452.01 727.648,2457.36 727.63,2462.31L723.147,2462.31C723.2,2458.16 723.27,2453.86 723.445,2449.91C723.55,2447.61 723.253,2447.36 722.657,2447.36L720.118,2447.26C719.33,2460.71 719.873,2478.76 720.048,2483.46Z" style="fill-rule:nonzero;"/>
        </g>
        <g transform="matrix(2.8552,0,0,1,-1384.72,0)">
            <path d="M732.674,2483.41C732.691,2483.71 732.656,2484.61 733.322,2484.56L740.94,2484.56C742.305,2484.56 742.305,2482.46 742.305,2481.11L742.305,2474.46L735.861,2474.46C735.861,2473.51 735.844,2471.91 735.826,2470.81L739.311,2470.81C740.414,2470.81 740.607,2469.51 740.607,2467.66L740.607,2461.01L735.844,2461.01C735.844,2459.76 735.861,2458.11 735.879,2456.86L740.94,2456.86C741.92,2456.76 742.27,2455.26 742.305,2453.76L742.305,2447.06L735.108,2447.06L732.779,2446.96C732.008,2460.41 732.534,2478.71 732.674,2483.41Z" style="fill-rule:nonzero;"/>
        </g>
        <g transform="matrix(2.8552,0,0,1,-1384.72,0)">
            <path d="M743.741,2483.51C743.759,2483.81 743.724,2484.71 744.389,2484.66L747.244,2484.66C747.174,2484.21 747.069,2481.16 746.999,2477.61C747.296,2477.76 747.577,2477.76 747.857,2477.76C748.33,2479.31 748.978,2481.16 749.538,2482.86C749.941,2483.91 750.221,2485.01 751.569,2484.56L754.144,2483.71C753.566,2483.01 752.112,2478.96 750.921,2475.41C752.252,2473.21 753.198,2469.96 753.688,2466.36C754.021,2464.06 754.144,2461.71 754.073,2459.41C754.021,2456.96 753.723,2454.51 753.145,2452.51C752.322,2449.51 750.956,2447.61 749.048,2447.56C748.33,2447.56 747.699,2447.71 747.086,2448.01C746.964,2447.51 746.718,2447.36 746.351,2447.36L743.829,2447.26C743.041,2460.71 743.601,2478.81 743.741,2483.51ZM746.929,2458.11C747.419,2457.71 748.224,2457.31 749.013,2457.31C751.972,2457.36 750.501,2466.01 748.68,2467.61C748.102,2468.06 747.471,2468.11 746.876,2467.71C746.876,2464.61 746.894,2461.31 746.929,2458.11Z" style="fill-rule:nonzero;"/>
        </g>
        <g transform="matrix(2.8552,0,0,1,-1384.72,0)">
            <path d="M760.64,2483.31C760.64,2483.61 760.605,2484.51 761.253,2484.46L764.125,2484.46C764.02,2483.81 763.863,2477.91 763.775,2470.81L767.435,2470.81C767.995,2470.91 768.258,2470.11 768.258,2469.36L768.258,2461.01L763.775,2461.01C763.775,2459.76 763.793,2458.41 763.828,2457.16L768.643,2457.16C769.484,2457.21 769.922,2456.41 769.922,2455.11L769.922,2447.36L760.71,2447.26C759.94,2460.71 760.465,2478.61 760.64,2483.31Z" style="fill-rule:nonzero;"/>
        </g>
        <g transform="matrix(2.8552,0,0,1,-1384.72,0)">
            <path d="M777.189,2446.76C775.456,2446.76 773.844,2448.91 772.706,2452.41C771.603,2455.81 770.92,2460.51 770.92,2465.61C770.92,2470.71 771.603,2475.36 772.706,2478.76C773.844,2482.21 775.456,2484.41 777.189,2484.41C778.94,2484.41 780.534,2482.21 781.672,2478.76C782.793,2475.36 783.476,2470.71 783.476,2465.61C783.476,2460.51 782.793,2455.81 781.672,2452.41C780.534,2448.91 778.94,2446.76 777.189,2446.76ZM779.221,2458.96C779.763,2460.61 780.114,2462.96 780.114,2465.61C780.114,2468.16 779.763,2470.51 779.221,2472.26C778.695,2473.81 777.977,2474.76 777.189,2474.76C776.401,2474.76 775.666,2473.81 775.14,2472.26C774.597,2470.51 774.265,2468.16 774.265,2465.61C774.265,2462.96 774.597,2460.61 775.14,2458.96C775.666,2457.36 776.401,2456.36 777.189,2456.36C777.977,2456.36 778.695,2457.36 779.221,2458.96Z" style="fill-rule:nonzero;"/>
        </g>
        <g transform="matrix(2.8552,0,0,1,-1384.72,0)">
            <path d="M784.912,2483.51C784.929,2483.81 784.894,2484.71 785.56,2484.66L788.414,2484.66C788.344,2484.21 788.239,2481.16 788.169,2477.61C788.467,2477.76 788.747,2477.76 789.027,2477.76C789.5,2479.31 790.148,2481.16 790.708,2482.86C791.111,2483.91 791.391,2485.01 792.74,2484.56L795.314,2483.71C794.736,2483.01 793.283,2478.96 792.092,2475.41C793.423,2473.21 794.368,2469.96 794.859,2466.36C795.191,2464.06 795.314,2461.71 795.244,2459.41C795.191,2456.96 794.894,2454.51 794.316,2452.51C793.493,2449.51 792.127,2447.61 790.218,2447.56C789.5,2447.56 788.87,2447.71 788.257,2448.01C788.134,2447.51 787.889,2447.36 787.521,2447.36L784.999,2447.26C784.211,2460.71 784.772,2478.81 784.912,2483.51ZM788.099,2458.11C788.589,2457.71 789.395,2457.31 790.183,2457.31C793.143,2457.36 791.672,2466.01 789.85,2467.61C789.272,2468.06 788.642,2468.11 788.047,2467.71C788.047,2464.61 788.064,2461.31 788.099,2458.11Z" style="fill-rule:nonzero;"/>
        </g>
        <g transform="matrix(2.8552,0,0,1,-1384.72,0)">
            <path d="M801.811,2483.41C801.828,2483.71 801.793,2484.66 802.459,2484.61C805.436,2484.61 808.273,2486.16 810.549,2478.81C811.565,2475.56 812.108,2471.41 812.195,2467.11C812.248,2462.71 811.828,2458.36 810.865,2454.81C809.236,2448.76 806.924,2447.51 804.42,2447.36L801.898,2447.26C801.11,2460.91 801.671,2478.66 801.811,2483.41ZM805.016,2457.46C806.592,2457.31 807.607,2458.76 808.185,2460.91C808.606,2462.46 808.798,2464.56 808.781,2466.61C808.728,2468.66 808.483,2470.71 807.993,2472.21C807.397,2474.21 806.382,2475.26 804.998,2474.66C804.928,2469.66 804.893,2463.51 805.016,2457.46Z" style="fill-rule:nonzero;"/>
        </g>
        <g transform="matrix(2.8552,0,0,1,-1384.72,0)">
            <path d="M813.579,2483.36C813.596,2483.66 813.544,2484.56 814.209,2484.51L817.064,2484.51C816.889,2483.36 816.381,2463.61 817.011,2449.66C817.099,2447.36 816.801,2447.11 816.188,2447.11L813.649,2447.01C812.878,2460.46 813.439,2478.66 813.579,2483.36Z" style="fill-rule:nonzero;"/>
        </g>
        <g transform="matrix(2.8552,0,0,1,-1384.72,0)">
            <path d="M828.937,2460.91C829.059,2460.86 829.812,2460.96 829.55,2458.26C829.042,2452.71 827.641,2449.06 825.977,2447.51C825.172,2446.76 824.331,2446.51 823.491,2446.76C822.65,2447.01 821.827,2447.76 821.057,2449.06C817.379,2455.26 816.784,2473.21 820.216,2481.01C821.389,2483.71 822.93,2484.86 824.454,2484.56L824.541,2484.56C826.538,2484.11 828.534,2481.06 829.357,2475.61C829.865,2472.46 829.812,2467.01 829.637,2464.96L823.228,2464.96L823.228,2470.76C823.245,2471.71 823.578,2472.86 824.121,2472.81L825.96,2472.81C825.084,2476.66 821.021,2475.81 821.372,2465.21C821.774,2454.21 825.995,2454.16 826.293,2461.71L828.937,2460.91Z" style="fill-rule:nonzero;"/>
        </g>
    </g>
</svg>
