<?xml version="1.0" encoding="UTF-8" standalone="no"?>
<!DOCTYPE svg PUBLIC "-//W3C//DTD SVG 1.1//EN" "http://www.w3.org/Graphics/SVG/1.1/DTD/svg11.dtd">
<svg width="100%" height="100%" viewBox="0 0 3508 2481" version="1.1" xmlns="http://www.w3.org/2000/svg" xmlns:xlink="http://www.w3.org/1999/xlink" xml:space="preserve" xmlns:serif="http://www.serif.com/" style="fill-rule:evenodd;clip-rule:evenodd;stroke-linejoin:round;stroke-miterlimit:2;">
    <g transform="matrix(8.61007,0,0,8.61007,-7598.06,-14767.4)">
        <g transform="matrix(0.398662,0,0,0.398662,244.087,703.391)">
            <g transform="matrix(0.883854,0,0,1,333.581,0)">
                <path d="M1987.52,2830.95C1986.13,2833 1983.34,2833.54 1981.29,2832.16C1979.24,2830.77 1978.7,2827.99 1980.09,2825.93C1980.09,2825.93 1991.92,2808.43 2009.06,2798.62C2021.17,2791.7 2035.8,2788.58 2050.87,2796.85C2053.04,2798.04 2053.83,2800.77 2052.64,2802.94C2051.45,2805.11 2048.73,2805.9 2046.56,2804.71C2034.64,2798.17 2023.09,2800.93 2013.51,2806.41C1998.12,2815.21 1987.52,2830.95 1987.52,2830.95Z"/>
            </g>
            <g transform="matrix(0.987222,-0.159352,0.159352,0.987222,-315.434,359.146)">
                <path d="M2031.31,2827.29C2031.95,2829.68 2030.52,2832.14 2028.13,2832.77C2025.74,2833.41 2023.28,2831.99 2022.65,2829.6C2022.65,2829.6 2014.06,2796.97 1983.12,2792.2C1980.67,2791.83 1978.99,2789.53 1979.37,2787.09C1979.75,2784.64 1982.04,2782.97 1984.48,2783.34C2021.01,2788.97 2031.31,2827.29 2031.31,2827.29Z"/>
            </g>
        </g>
        <g transform="matrix(0.464762,0,0,0.464762,104.272,456.932)">
            <g transform="matrix(0.883854,0,0,1,333.581,0)">
                <path d="M1987.52,2830.95C1986.13,2833 1983.34,2833.54 1981.29,2832.16C1979.24,2830.77 1978.7,2827.99 1980.09,2825.93C1980.09,2825.93 1991.92,2808.43 2009.06,2798.62C2021.17,2791.7 2035.8,2788.58 2050.87,2796.85C2053.04,2798.04 2053.83,2800.77 2052.64,2802.94C2051.45,2805.11 2048.73,2805.9 2046.56,2804.71C2034.64,2798.17 2023.09,2800.93 2013.51,2806.41C1998.12,2815.21 1987.52,2830.95 1987.52,2830.95Z"/>
            </g>
            <g transform="matrix(0.987222,-0.159352,0.159352,0.987222,-315.434,359.146)">
                <path d="M2031.31,2827.29C2031.95,2829.68 2030.52,2832.14 2028.13,2832.77C2025.74,2833.41 2023.28,2831.99 2022.65,2829.6C2022.65,2829.6 2014.06,2796.97 1983.12,2792.2C1980.67,2791.83 1978.99,2789.53 1979.37,2787.09C1979.75,2784.64 1982.04,2782.97 1984.48,2783.34C2021.01,2788.97 2031.31,2827.29 2031.31,2827.29Z"/>
            </g>
        </g>
        <g transform="matrix(0.344909,0,0,0.344909,320.377,836.233)">
            <g transform="matrix(0.883854,0,0,1,333.581,0)">
                <path d="M1987.52,2830.95C1986.13,2833 1983.34,2833.54 1981.29,2832.16C1979.24,2830.77 1978.7,2827.99 1980.09,2825.93C1980.09,2825.93 1991.92,2808.43 2009.06,2798.62C2021.17,2791.7 2035.8,2788.58 2050.87,2796.85C2053.04,2798.04 2053.83,2800.77 2052.64,2802.94C2051.45,2805.11 2048.73,2805.9 2046.56,2804.71C2034.64,2798.17 2023.09,2800.93 2013.51,2806.41C1998.12,2815.21 1987.52,2830.95 1987.52,2830.95Z"/>
            </g>
            <g transform="matrix(0.987222,-0.159352,0.159352,0.987222,-315.434,359.146)">
                <path d="M2031.31,2827.29C2031.95,2829.68 2030.52,2832.14 2028.13,2832.77C2025.74,2833.41 2023.28,2831.99 2022.65,2829.6C2022.65,2829.6 2014.06,2796.97 1983.12,2792.2C1980.67,2791.83 1978.99,2789.53 1979.37,2787.09C1979.75,2784.64 1982.04,2782.97 1984.48,2783.34C2021.01,2788.97 2031.31,2827.29 2031.31,2827.29Z"/>
            </g>
        </g>
        <g transform="matrix(0.0843047,-0.271891,0.271891,0.0843047,66.296,2159.97)">
            <g transform="matrix(0.883854,0,0,1,333.581,0)">
                <path d="M1987.52,2830.95C1986.13,2833 1983.34,2833.54 1981.29,2832.16C1979.24,2830.77 1978.7,2827.99 1980.09,2825.93C1980.09,2825.93 1991.92,2808.43 2009.06,2798.62C2021.17,2791.7 2035.8,2788.58 2050.87,2796.85C2053.04,2798.04 2053.83,2800.77 2052.64,2802.94C2051.45,2805.11 2048.73,2805.9 2046.56,2804.71C2034.64,2798.17 2023.09,2800.93 2013.51,2806.41C1998.12,2815.21 1987.52,2830.95 1987.52,2830.95Z"/>
            </g>
            <g transform="matrix(0.987222,-0.159352,0.159352,0.987222,-315.434,359.146)">
                <path d="M2031.31,2827.29C2031.95,2829.68 2030.52,2832.14 2028.13,2832.77C2025.74,2833.41 2023.28,2831.99 2022.65,2829.6C2022.65,2829.6 2014.06,2796.97 1983.12,2792.2C1980.67,2791.83 1978.99,2789.53 1979.37,2787.09C1979.75,2784.64 1982.04,2782.97 1984.48,2783.34C2021.01,2788.97 2031.31,2827.29 2031.31,2827.29Z"/>
            </g>
        </g>
        <g transform="matrix(-0.0405407,-0.281759,0.281759,-0.0405407,311.921,2589.74)">
            <g transform="matrix(0.883854,0,0,1,333.581,0)">
                <path d="M1987.52,2830.95C1986.13,2833 1983.34,2833.54 1981.29,2832.16C1979.24,2830.77 1978.7,2827.99 1980.09,2825.93C1980.09,2825.93 1991.92,2808.43 2009.06,2798.62C2021.17,2791.7 2035.8,2788.58 2050.87,2796.85C2053.04,2798.04 2053.83,2800.77 2052.64,2802.94C2051.45,2805.11 2048.73,2805.9 2046.56,2804.71C2034.64,2798.17 2023.09,2800.93 2013.51,2806.41C1998.12,2815.21 1987.52,2830.95 1987.52,2830.95Z"/>
            </g>
            <g transform="matrix(0.987222,-0.159352,0.159352,0.987222,-315.434,359.146)">
                <path d="M2031.31,2827.29C2031.95,2829.68 2030.52,2832.14 2028.13,2832.77C2025.74,2833.41 2023.28,2831.99 2022.65,2829.6C2022.65,2829.6 2014.06,2796.97 1983.12,2792.2C1980.67,2791.83 1978.99,2789.53 1979.37,2787.09C1979.75,2784.64 1982.04,2782.97 1984.48,2783.34C2021.01,2788.97 2031.31,2827.29 2031.31,2827.29Z"/>
            </g>
        </g>
        <g transform="matrix(0.0405407,-0.281759,-0.281759,-0.0405407,1861.12,2589.74)">
            <g transform="matrix(0.883854,0,0,1,333.581,0)">
                <path d="M1987.52,2830.95C1986.13,2833 1983.34,2833.54 1981.29,2832.16C1979.24,2830.77 1978.7,2827.99 1980.09,2825.93C1980.09,2825.93 1991.92,2808.43 2009.06,2798.62C2021.17,2791.7 2035.8,2788.58 2050.87,2796.85C2053.04,2798.04 2053.83,2800.77 2052.64,2802.94C2051.45,2805.11 2048.73,2805.9 2046.56,2804.71C2034.64,2798.17 2023.09,2800.93 2013.51,2806.41C1998.12,2815.21 1987.52,2830.95 1987.52,2830.95Z"/>
            </g>
            <g transform="matrix(0.987222,-0.159352,0.159352,0.987222,-315.434,359.146)">
                <path d="M2031.31,2827.29C2031.95,2829.68 2030.52,2832.14 2028.13,2832.77C2025.74,2833.41 2023.28,2831.99 2022.65,2829.6C2022.65,2829.6 2014.06,2796.97 1983.12,2792.2C1980.67,2791.83 1978.99,2789.53 1979.37,2787.09C1979.75,2784.64 1982.04,2782.97 1984.48,2783.34C2021.01,2788.97 2031.31,2827.29 2031.31,2827.29Z"/>
            </g>
        </g>
        <g transform="matrix(-0.0843047,-0.271891,-0.271891,0.0843047,2107.74,2159.97)">
            <g transform="matrix(0.883854,0,0,1,333.581,0)">
                <path d="M1987.52,2830.95C1986.13,2833 1983.34,2833.54 1981.29,2832.16C1979.24,2830.77 1978.7,2827.99 1980.09,2825.93C1980.09,2825.93 1991.92,2808.43 2009.06,2798.62C2021.17,2791.7 2035.8,2788.58 2050.87,2796.85C2053.04,2798.04 2053.83,2800.77 2052.64,2802.94C2051.45,2805.11 2048.73,2805.9 2046.56,2804.71C2034.64,2798.17 2023.09,2800.93 2013.51,2806.41C1998.12,2815.21 1987.52,2830.95 1987.52,2830.95Z"/>
            </g>
            <g transform="matrix(0.987222,-0.159352,0.159352,0.987222,-315.434,359.146)">
                <path d="M2031.31,2827.29C2031.95,2829.68 2030.52,2832.14 2028.13,2832.77C2025.74,2833.41 2023.28,2831.99 2022.65,2829.6C2022.65,2829.6 2014.06,2796.97 1983.12,2792.2C1980.67,2791.83 1978.99,2789.53 1979.37,2787.09C1979.75,2784.64 1982.04,2782.97 1984.48,2783.34C2021.01,2788.97 2031.31,2827.29 2031.31,2827.29Z"/>
            </g>
        </g>
        <g transform="matrix(0.344909,0,0,0.344909,395.314,836.233)">
            <g transform="matrix(0.883854,0,0,1,333.581,0)">
                <path d="M1987.52,2830.95C1986.13,2833 1983.34,2833.54 1981.29,2832.16C1979.24,2830.77 1978.7,2827.99 1980.09,2825.93C1980.09,2825.93 1991.92,2808.43 2009.06,2798.62C2021.17,2791.7 2035.8,2788.58 2050.87,2796.85C2053.04,2798.04 2053.83,2800.77 2052.64,2802.94C2051.45,2805.11 2048.73,2805.9 2046.56,2804.71C2034.64,2798.17 2023.09,2800.93 2013.51,2806.41C1998.12,2815.21 1987.52,2830.95 1987.52,2830.95Z"/>
            </g>
            <g transform="matrix(0.987222,-0.159352,0.159352,0.987222,-315.434,359.146)">
                <path d="M2031.31,2827.29C2031.95,2829.68 2030.52,2832.14 2028.13,2832.77C2025.74,2833.41 2023.28,2831.99 2022.65,2829.6C2022.65,2829.6 2014.06,2796.97 1983.12,2792.2C1980.67,2791.83 1978.99,2789.53 1979.37,2787.09C1979.75,2784.64 1982.04,2782.97 1984.48,2783.34C2021.01,2788.97 2031.31,2827.29 2031.31,2827.29Z"/>
            </g>
        </g>
        <g transform="matrix(0.464762,0,0,0.464762,138.753,553.819)">
            <g transform="matrix(1,0,0,1,103.691,0)">
                <path d="M1987.52,2830.95C1986.13,2833 1983.34,2833.54 1981.29,2832.16C1979.24,2830.77 1978.7,2827.99 1980.09,2825.93C1980.09,2825.93 1991.92,2808.43 2009.06,2798.62C2021.17,2791.7 2035.8,2788.58 2050.87,2796.85C2053.04,2798.04 2053.83,2800.77 2052.64,2802.94C2051.45,2805.11 2048.73,2805.9 2046.56,2804.71C2034.64,2798.17 2023.09,2800.93 2013.51,2806.41C1998.12,2815.21 1987.52,2830.95 1987.52,2830.95Z"/>
            </g>
            <g transform="matrix(1,0,0,1,103.691,0)">
                <path d="M2031.31,2827.29C2031.95,2829.68 2030.52,2832.14 2028.13,2832.77C2025.74,2833.41 2023.28,2831.99 2022.65,2829.6C2022.65,2829.6 2014.06,2796.97 1983.12,2792.2C1980.67,2791.83 1978.99,2789.53 1979.37,2787.09C1979.75,2784.64 1982.04,2782.97 1984.48,2783.34C2021.01,2788.97 2031.31,2827.29 2031.31,2827.29Z"/>
            </g>
        </g>
        <g transform="matrix(0.0652411,-0.385244,0.385244,0.0652411,-212.264,2484.29)">
            <g transform="matrix(1,0,0,1,103.691,0)">
                <path d="M1987.52,2830.95C1986.13,2833 1983.34,2833.54 1981.29,2832.16C1979.24,2830.77 1978.7,2827.99 1980.09,2825.93C1980.09,2825.93 1991.92,2808.43 2009.06,2798.62C2021.17,2791.7 2035.8,2788.58 2050.87,2796.85C2053.04,2798.04 2053.83,2800.77 2052.64,2802.94C2051.45,2805.11 2048.73,2805.9 2046.56,2804.71C2034.64,2798.17 2023.09,2800.93 2013.51,2806.41C1998.12,2815.21 1987.52,2830.95 1987.52,2830.95Z"/>
            </g>
            <g transform="matrix(1,0,0,1,103.691,0)">
                <path d="M2031.31,2827.29C2031.95,2829.68 2030.52,2832.14 2028.13,2832.77C2025.74,2833.41 2023.28,2831.99 2022.65,2829.6C2022.65,2829.6 2014.06,2796.97 1983.12,2792.2C1980.67,2791.83 1978.99,2789.53 1979.37,2787.09C1979.75,2784.64 1982.04,2782.97 1984.48,2783.34C2021.01,2788.97 2031.31,2827.29 2031.31,2827.29Z"/>
            </g>
        </g>
        <g transform="matrix(-0.0652411,-0.385244,-0.385244,0.0652411,2384.6,2484.29)">
            <g transform="matrix(1,0,0,1,103.691,0)">
                <path d="M1987.52,2830.95C1986.13,2833 1983.34,2833.54 1981.29,2832.16C1979.24,2830.77 1978.7,2827.99 1980.09,2825.93C1980.09,2825.93 1991.92,2808.43 2009.06,2798.62C2021.17,2791.7 2035.8,2788.58 2050.87,2796.85C2053.04,2798.04 2053.83,2800.77 2052.64,2802.94C2051.45,2805.11 2048.73,2805.9 2046.56,2804.71C2034.64,2798.17 2023.09,2800.93 2013.51,2806.41C1998.12,2815.21 1987.52,2830.95 1987.52,2830.95Z"/>
            </g>
            <g transform="matrix(1,0,0,1,103.691,0)">
                <path d="M2031.31,2827.29C2031.95,2829.68 2030.52,2832.14 2028.13,2832.77C2025.74,2833.41 2023.28,2831.99 2022.65,2829.6C2022.65,2829.6 2014.06,2796.97 1983.12,2792.2C1980.67,2791.83 1978.99,2789.53 1979.37,2787.09C1979.75,2784.64 1982.04,2782.97 1984.48,2783.34C2021.01,2788.97 2031.31,2827.29 2031.31,2827.29Z"/>
            </g>
        </g>
        <g transform="matrix(-0.464762,0,0,0.464762,2040.4,553.819)">
            <g transform="matrix(1,0,0,1,103.691,0)">
                <path d="M1987.52,2830.95C1986.13,2833 1983.34,2833.54 1981.29,2832.16C1979.24,2830.77 1978.7,2827.99 1980.09,2825.93C1980.09,2825.93 1991.92,2808.43 2009.06,2798.62C2021.17,2791.7 2035.8,2788.58 2050.87,2796.85C2053.04,2798.04 2053.83,2800.77 2052.64,2802.94C2051.45,2805.11 2048.73,2805.9 2046.56,2804.71C2034.64,2798.17 2023.09,2800.93 2013.51,2806.41C1998.12,2815.21 1987.52,2830.95 1987.52,2830.95Z"/>
            </g>
            <g transform="matrix(1,0,0,1,103.691,0)">
                <path d="M2031.31,2827.29C2031.95,2829.68 2030.52,2832.14 2028.13,2832.77C2025.74,2833.41 2023.28,2831.99 2022.65,2829.6C2022.65,2829.6 2014.06,2796.97 1983.12,2792.2C1980.67,2791.83 1978.99,2789.53 1979.37,2787.09C1979.75,2784.64 1982.04,2782.97 1984.48,2783.34C2021.01,2788.97 2031.31,2827.29 2031.31,2827.29Z"/>
            </g>
        </g>
        <g transform="matrix(-0.464762,0,0,0.464762,2003.41,484.323)">
            <g transform="matrix(1,0,0,1,103.691,0)">
                <path d="M1987.52,2830.95C1986.13,2833 1983.34,2833.54 1981.29,2832.16C1979.24,2830.77 1978.7,2827.99 1980.09,2825.93C1980.09,2825.93 1991.92,2808.43 2009.06,2798.62C2012.64,2796.58 2027.39,2791.36 2029.16,2791.62C2033.38,2792.24 2020.27,2802.55 2013.51,2806.41C1998.12,2815.21 1987.52,2830.95 1987.52,2830.95Z"/>
            </g>
            <g transform="matrix(1,0,0,1,103.691,0)">
                <path d="M2031.31,2827.29C2031.95,2829.68 2030.52,2832.14 2028.13,2832.77C2025.74,2833.41 2023.28,2831.99 2022.65,2829.6C2022.65,2829.6 2014.06,2796.97 1983.12,2792.2C1980.67,2791.83 1978.99,2789.53 1979.37,2787.09C1979.75,2784.64 1982.04,2782.97 1984.48,2783.34C2021.01,2788.97 2031.31,2827.29 2031.31,2827.29Z"/>
            </g>
        </g>
        <g transform="matrix(0.464762,0,0,0.464762,167.29,484.323)">
            <g transform="matrix(1,0,0,1,103.691,0)">
                <path d="M1987.52,2830.95C1986.13,2833 1983.34,2833.54 1981.29,2832.16C1979.24,2830.77 1978.7,2827.99 1980.09,2825.93C1980.09,2825.93 1991.92,2808.43 2009.06,2798.62C2012.64,2796.58 2027.39,2791.36 2029.16,2791.62C2033.38,2792.24 2020.27,2802.55 2013.51,2806.41C1998.12,2815.21 1987.52,2830.95 1987.52,2830.95Z"/>
            </g>
            <g transform="matrix(1,0,0,1,103.691,0)">
                <path d="M2031.31,2827.29C2031.95,2829.68 2030.52,2832.14 2028.13,2832.77C2025.74,2833.41 2023.28,2831.99 2022.65,2829.6C2022.65,2829.6 2014.06,2796.97 1983.12,2792.2C1980.67,2791.83 1978.99,2789.53 1979.37,2787.09C1979.75,2784.64 1982.04,2782.97 1984.48,2783.34C2021.01,2788.97 2031.31,2827.29 2031.31,2827.29Z"/>
            </g>
        </g>
        <g transform="matrix(0.209388,-0.132511,0.132511,0.209388,238.749,1462.8)">
            <g transform="matrix(1,5.55112e-17,-5.55112e-17,1,103.691,0)">
                <path d="M1990.77,2833.14C1988.17,2836.99 1982.94,2838.01 1979.1,2835.41C1975.25,2832.82 1974.24,2827.59 1976.83,2823.74C1976.83,2823.74 1989.21,2805.46 2007.12,2795.22C2020.34,2787.66 2036.3,2784.38 2052.76,2793.41C2056.83,2795.65 2058.32,2800.76 2056.08,2804.83C2053.85,2808.9 2048.74,2810.39 2044.67,2808.15C2034.13,2802.37 2023.93,2804.97 2015.46,2809.82C2000.84,2818.18 1990.77,2833.14 1990.77,2833.14Z"/>
            </g>
            <g transform="matrix(1,5.55112e-17,-5.55112e-17,1,103.691,0)">
                <path d="M2035.1,2826.28C2036.3,2830.76 2033.62,2835.37 2029.14,2836.57C2024.66,2837.76 2020.05,2835.09 2018.85,2830.61C2018.85,2830.61 2011.02,2800.47 1982.52,2796.08C1977.93,2795.38 1974.79,2791.08 1975.49,2786.49C1976.2,2781.91 1980.5,2778.76 1985.08,2779.46C2024.05,2785.47 2035.1,2826.28 2035.1,2826.28Z"/>
            </g>
        </g>
        <g transform="matrix(-0.209388,-0.132511,-0.132511,0.209388,1937.96,1462.8)">
            <g transform="matrix(1,5.55112e-17,-5.55112e-17,1,103.691,0)">
                <path d="M1990.77,2833.14C1988.17,2836.99 1982.94,2838.01 1979.1,2835.41C1975.25,2832.82 1974.24,2827.59 1976.83,2823.74C1976.83,2823.74 1989.21,2805.46 2007.12,2795.22C2020.34,2787.66 2036.3,2784.38 2052.76,2793.41C2056.83,2795.65 2058.32,2800.76 2056.08,2804.83C2053.85,2808.9 2048.74,2810.39 2044.67,2808.15C2034.13,2802.37 2023.93,2804.97 2015.46,2809.82C2000.84,2818.18 1990.77,2833.14 1990.77,2833.14Z"/>
            </g>
            <g transform="matrix(1,5.55112e-17,-5.55112e-17,1,103.691,0)">
                <path d="M2035.1,2826.28C2036.3,2830.76 2033.62,2835.37 2029.14,2836.57C2024.66,2837.76 2020.05,2835.09 2018.85,2830.61C2018.85,2830.61 2011.02,2800.47 1982.52,2796.08C1977.93,2795.38 1974.79,2791.08 1975.49,2786.49C1976.2,2781.91 1980.5,2778.76 1985.08,2779.46C2024.05,2785.47 2035.1,2826.28 2035.1,2826.28Z"/>
            </g>
        </g>
        <g transform="matrix(0.709172,0,0,0.709172,-177.145,-185.844)">
            <path d="M1822.51,2941.87C1826.96,2942.51 1836.71,2943.64 1845.35,2942.74C1848.97,2942.37 1852.39,2941.65 1855.05,2940.31C1857.15,2939.24 1858.76,2937.79 1859.24,2935.62C1860.12,2931.74 1861.27,2929.46 1862.27,2928.3C1863.13,2927.3 1864.05,2926.83 1864.87,2926.64C1866.81,2926.2 1869.05,2927.14 1870.2,2930.1C1871.51,2933.45 1871.46,2940.33 1867.46,2946.05C1864.51,2950.27 1858.22,2954.33 1850.72,2957.42C1842.94,2960.62 1833.91,2962.82 1826.38,2963.4C1828.92,2966.05 1831.8,2969.49 1833.88,2973.3C1837.05,2979.1 1841.92,3001.74 1843.2,3016.39C1843.6,3020.98 1843.64,3024.82 1843.24,3027.2C1842.97,3028.82 1842.43,3029.96 1841.87,3030.64C1841.2,3031.45 1840.46,3031.81 1839.78,3031.96C1838.9,3032.15 1837.98,3032.03 1837.08,3031.43C1836.33,3030.93 1835.32,3029.64 1834.51,3027.49C1832.16,3021.26 1829.37,3005.47 1825.85,2994.94C1824.72,2991.53 1823.65,2988.7 1822.34,2987.3C1822.59,2988.26 1822.85,2989.28 1823.1,2990.34C1824.4,2995.87 1825.65,3002.53 1825.98,3008.18C1826.22,3012.33 1825.94,3015.98 1825.01,3018.45C1824.09,3020.9 1822.6,3021.59 1821.66,3021.73C1820.5,3021.9 1818.81,3021.48 1817.61,3019.31C1815.83,3016.1 1813.8,3005.55 1811.25,2996.59C1810.31,2993.3 1809.29,2990.25 1808.16,2987.96C1807.59,2986.82 1807.04,2985.88 1806.39,2985.36C1804.04,2983.51 1800.19,2983.02 1796.63,2983.84C1790.7,2985.21 1776.59,2985.25 1769.89,2983.84C1766.32,2983.09 1762.48,2983.51 1760.14,2985.36C1759.49,2985.88 1758.94,2986.82 1758.37,2987.96C1757.23,2990.25 1756.22,2993.3 1755.28,2996.59C1752.72,3005.55 1750.69,3016.1 1748.92,3019.31C1747.72,3021.48 1746.02,3021.9 1744.86,3021.73C1743.93,3021.59 1742.43,3020.9 1741.51,3018.45C1740.58,3015.98 1740.3,3012.33 1740.54,3008.18C1740.88,3002.53 1742.12,2995.87 1743.43,2990.34C1743.68,2989.28 1743.93,2988.26 1744.18,2987.3C1742.88,2988.7 1741.81,2991.53 1740.67,2994.94C1737.15,3005.47 1734.36,3021.26 1732.02,3027.49C1731.42,3029.08 1730.76,3030.2 1730.19,3030.79C1729.32,3031.72 1728.37,3032.02 1727.52,3032.03C1726.59,3032.05 1725.56,3031.74 1724.65,3030.64C1724.09,3029.96 1723.56,3028.82 1723.29,3027.2C1722.89,3024.82 1722.92,3020.98 1723.33,3016.39C1724.6,3001.74 1729.48,2979.1 1732.64,2973.3C1734.73,2969.49 1737.6,2966.05 1740.14,2963.4C1732.62,2962.82 1723.58,2960.62 1715.8,2957.42C1708.3,2954.33 1702.01,2950.27 1699.06,2946.05C1695.07,2940.33 1695.02,2933.45 1696.32,2930.1C1697.48,2927.14 1699.72,2926.2 1701.65,2926.64C1702.47,2926.83 1703.39,2927.3 1704.25,2928.3C1705.26,2929.46 1706.41,2931.74 1707.28,2935.62C1707.77,2937.79 1709.37,2939.24 1711.48,2940.31C1714.14,2941.65 1717.56,2942.37 1721.17,2942.74C1730.94,2943.76 1742.13,2942.18 1745.47,2941.64C1744.6,2939.51 1744.64,2937.27 1745.34,2935.24C1746.62,2931.52 1750.86,2927.71 1757.99,2926.87C1764.08,2926.15 1780.76,2928.15 1798.24,2927.43C1807.96,2927.03 1815.98,2928.85 1819.74,2931.43C1822.8,2933.54 1823.92,2936.25 1823.58,2938.97C1823.47,2939.85 1823.14,2940.83 1822.51,2941.87ZM1749.25,2946.24C1748.82,2946.76 1748.21,2947.13 1747.5,2947.26C1747.5,2947.26 1727.58,2950.8 1714.41,2947.55C1707.85,2945.94 1702.94,2942.58 1701.6,2937.15C1701.92,2938.95 1702.63,2940.9 1703.88,2942.69C1706.35,2946.22 1711.76,2949.4 1718.04,2951.98C1727.87,2956.03 1739.9,2958.48 1747.36,2957.46C1748.68,2957.28 1749.95,2958.01 1750.47,2959.23C1750.98,2960.46 1750.61,2961.88 1749.56,2962.69C1749.56,2962.69 1741.92,2968.58 1737.8,2976.12C1734.93,2981.37 1730.76,3001.26 1729.35,3015.1C1731.18,3007.44 1733.27,2998.04 1735.69,2991.37C1737.28,2986.99 1739.15,2983.7 1741.01,2982.25C1746.16,2978.21 1748.28,2976.81 1748.81,2976.6C1749.7,2976.24 1750.34,2976.35 1750.68,2976.43C1751.41,2976.6 1751.93,2976.97 1752.31,2977.43C1752.76,2977.97 1753.1,2978.71 1752.96,2979.73C1752.92,2979.99 1752.7,2980.74 1752.06,2981.57C1751.83,2982.27 1750.25,2987.01 1749.14,2991.69C1748,2996.51 1746.9,3002.24 1746.5,3007.28C1748.06,3000.91 1749.87,2993.1 1752.06,2987.68C1753.37,2984.46 1754.91,2982.01 1756.49,2980.76C1759.87,2978.08 1765.38,2976.59 1770.47,2977.99C1775.99,2979.52 1790.76,2979.58 1796.05,2977.99C1801.11,2976.48 1806.65,2978.08 1810.04,2980.76C1811.61,2982.01 1813.15,2984.46 1814.46,2987.68C1816.66,2993.1 1818.46,3000.91 1820.03,3007.28C1819.62,3002.24 1818.52,2996.51 1817.38,2991.69C1816.27,2987.01 1814.7,2982.27 1814.46,2981.57C1813.78,2980.68 1813.57,2979.87 1813.55,2979.61C1813.48,2978.9 1813.66,2978.33 1813.91,2977.88C1814.29,2977.19 1814.89,2976.65 1815.84,2976.43C1816.19,2976.35 1816.83,2976.24 1817.71,2976.6C1818.24,2976.81 1820.36,2978.21 1825.51,2982.25C1827.37,2983.7 1829.25,2986.99 1830.83,2991.37C1833.25,2998.04 1835.34,3007.44 1837.17,3015.1C1835.76,3001.26 1831.59,2981.37 1828.73,2976.12C1824.6,2968.58 1816.97,2962.69 1816.97,2962.69C1815.91,2961.88 1815.54,2960.46 1816.06,2959.23C1816.57,2958.01 1817.85,2957.28 1819.16,2957.46C1826.62,2958.48 1838.65,2956.03 1848.48,2951.98C1854.76,2949.4 1860.18,2946.22 1862.64,2942.69C1863.89,2940.9 1864.6,2938.95 1864.92,2937.15C1863.58,2942.58 1858.68,2945.94 1852.11,2947.55C1838.94,2950.8 1819.02,2947.26 1819.02,2947.26C1818.48,2947.16 1817.99,2946.92 1817.6,2946.58C1816.71,2947.15 1815.69,2947.72 1814.55,2948.27C1809.8,2950.55 1802.14,2951.57 1793.72,2951.68C1775.47,2951.94 1753.47,2948.34 1753.47,2948.34C1753.1,2948.28 1752.75,2948.17 1752.41,2948.02C1751.19,2947.49 1750.14,2946.89 1749.25,2946.24ZM1814.11,2938.32C1813.22,2937.87 1812.11,2937.5 1810.82,2937.18C1807.56,2936.39 1803.33,2936.04 1798.6,2936.24C1781.42,2936.95 1765.01,2934.91 1759.02,2935.62C1757.04,2935.85 1755.45,2936.41 1754.39,2937.25C1754.02,2937.55 1753.65,2937.81 1753.66,2938.18C1753.66,2938.41 1753.87,2938.58 1754.08,2938.79C1754.44,2939.14 1754.91,2939.45 1755.48,2939.73C1759.02,2940.29 1777.78,2943.09 1793.6,2942.87C1800.51,2942.78 1806.84,2942.19 1810.74,2940.32C1812.17,2939.64 1813.29,2938.98 1814.11,2938.32Z"/>
        </g>
    </g>
</svg>
